<svg width="20" height="20" viewBox="0 0 20 20" fill="none" xmlns="http://www.w3.org/2000/svg">
<path d="M10.0013 18.75C8.59067 18.75 7.50126 18.0208 7.50126 16.6667H12.5013C12.5013 18.0208 11.4118 18.75 10.0013 18.75ZM14.9962 12.258C14.9962 13.6866 16.7858 14.0438 16.7858 14.758C16.7858 15.4723 16.4286 15.8295 15.0001 15.8295H5.00007C3.5715 15.8295 3.21436 15.4723 3.21436 14.758C3.21436 14.0438 5.00007 13.6866 5.00007 12.258V9.75804C5.00007 6.18661 6.42864 3.21429 9.28578 3.21429C9.28578 2.67857 9.64293 2.5 10.0001 2.5C10.3572 2.5 10.7144 2.67857 10.7144 3.21429C13.5715 3.21429 14.9962 6.18661 14.9962 9.75804V12.258Z" fill="white"/>
</svg>
