<svg width="20" height="20" viewBox="0 0 20 20" fill="none" xmlns="http://www.w3.org/2000/svg">
<path d="M5.17746 3.16422L6.82472 4.81213C6.825 4.81202 6.82528 4.8119 6.82555 4.81179L8.2379 6.22324C8.23763 6.22337 8.23735 6.2235 8.23707 6.22363L9.93091 7.9185H9.93258L12.0831 10.0676C12.0831 10.0687 12.0831 10.0698 12.083 10.0709L13.7759 11.7642C13.7763 11.7634 13.7767 11.7625 13.7771 11.7617L15.6802 13.6656C15.6796 13.6661 15.6791 13.6665 15.6785 13.667L16.8331 14.8225C17.1585 15.148 17.1585 15.6757 16.833 16.0011C16.5327 16.3015 16.06 16.3246 15.7331 16.0704L15.6546 16.001L14.2888 14.6355C13.0733 15.3407 11.6247 15.8334 10.0001 15.8334C5.00008 15.8334 1.66675 11.1667 1.66675 10C1.66675 9.25797 3.01528 7.09996 5.28346 5.62744L3.99902 4.34279C3.67361 4.01731 3.67364 3.48966 3.99908 3.16422C4.32448 2.83882 4.85206 2.83882 5.17746 3.16422ZM5.83342 10C5.83342 12.3012 7.69889 14.1667 10.0001 14.1667C11.0628 14.1667 12.0327 13.7688 12.7687 13.1139L11.2903 11.6365C10.9356 11.9164 10.4877 12.0834 10.0009 12.0834C8.85028 12.0834 7.91754 11.1506 7.91754 10C7.91754 9.51279 8.08481 9.06461 8.36505 8.70979L6.88624 7.23137C6.2313 7.96743 5.83342 8.93727 5.83342 10ZM10.0001 4.1667C15.0001 4.1667 18.3334 8.83336 18.3334 10C18.3334 10.4597 17.8158 11.4629 16.8827 12.5099L14.1615 9.78907C14.0551 7.65574 12.3443 5.94492 10.2109 5.8386L8.65215 4.28079C9.08621 4.20691 9.53597 4.1667 10.0001 4.1667Z" fill="white"/>
</svg>
