<svg width="30" height="30" viewBox="0 0 30 30" fill="none" xmlns="http://www.w3.org/2000/svg">
<rect width="30" height="30" rx="15" fill="#1E252F"/>
<path d="M19.7437 11.4938C20.0854 11.1521 20.0854 10.598 19.7437 10.2563C19.402 9.91457 18.8479 9.91457 18.5062 10.2563L15 13.7625L11.4938 10.2563C11.1521 9.91457 10.598 9.91457 10.2563 10.2563C9.91458 10.598 9.91458 11.1521 10.2563 11.4938L13.7625 15L10.2563 18.5062C9.91457 18.8479 9.91457 19.402 10.2563 19.7437C10.598 20.0854 11.1521 20.0854 11.4938 19.7437L15 16.2375L18.5062 19.7437C18.8479 20.0854 19.402 20.0854 19.7437 19.7437C20.0854 19.402 20.0854 18.8479 19.7437 18.5062L16.2375 15L19.7437 11.4938Z" fill="white"/>
</svg>
