<svg width="24" height="24" viewBox="0 0 24 24" fill="none" xmlns="http://www.w3.org/2000/svg">
<path fill-rule="evenodd" clip-rule="evenodd" d="M21.0101 10.1713L21.0127 13.7942C20.9872 14.1393 20.9543 14.484 20.9141 14.8281C20.8468 15.4035 20.379 15.8677 19.7916 15.9333C17.9519 16.139 16.0481 16.139 14.2083 15.9333C13.6209 15.8677 13.1531 15.4035 13.0858 14.8281C12.8661 12.9491 12.8661 11.0509 13.0858 9.17189C13.1531 8.59648 13.6209 8.13234 14.2083 8.06669C16.0481 7.86107 17.9519 7.86107 19.7916 8.06669C20.379 8.13234 20.8468 8.59648 20.9141 9.17189C20.953 9.5045 20.985 9.8377 21.0101 10.1713ZM17 10.5C16.1715 10.5 15.5 11.1716 15.5 12C15.5 12.8284 16.1715 13.5 17 13.5C17.8284 13.5 18.5 12.8284 18.5 12C18.5 11.1716 17.8284 10.5 17 10.5Z" fill="white"/>
<path d="M20.4036 6.03973C20.559 6.30899 20.2672 6.61051 19.9582 6.57597C18.0077 6.35798 15.9922 6.35798 14.0417 6.57597C12.7723 6.71784 11.7457 7.71738 11.596 8.99764C11.3627 10.9924 11.3627 13.0076 11.596 15.0024C11.7457 16.2826 12.7723 17.2822 14.0417 17.4241C15.9922 17.642 18.0077 17.642 19.9582 17.4241C20.2693 17.3893 20.5635 17.6929 20.4065 17.9637C19.6279 19.3065 18.2398 20.2437 16.6268 20.4134L15.9749 20.482C12.6641 20.8304 9.32462 20.8074 6.01887 20.4135L5.58692 20.362C3.8048 20.1497 2.39275 18.7573 2.15538 16.9784C1.71448 13.6741 1.71448 10.3259 2.15538 7.02166C2.39275 5.2427 3.8048 3.85034 5.58692 3.63798L6.01886 3.58651C9.32461 3.19258 12.6641 3.16961 15.9749 3.51801L16.6268 3.58661C18.2412 3.75649 19.6271 4.6951 20.4036 6.03973Z" fill="white"/>
</svg>
