<svg width="24" height="24" viewBox="0 0 24 24" fill="none" xmlns="http://www.w3.org/2000/svg">
<path d="M12.0015 22.5C10.3088 22.5 9.00146 21.625 9.00146 20H15.0015C15.0015 21.625 13.6942 22.5 12.0015 22.5ZM17.9954 14.7096C17.9954 16.4239 20.1429 16.8525 20.1429 17.7096C20.1429 18.5668 19.7143 18.9954 18 18.9954H6.00003C4.28575 18.9954 3.85718 18.5668 3.85718 17.7096C3.85718 16.8525 6.00003 16.4239 6.00003 14.7096V11.7096C6.00003 7.42393 7.71432 3.85714 11.1429 3.85714C11.1429 3.21429 11.5715 3 12 3C12.4286 3 12.8572 3.21429 12.8572 3.85714C16.2857 3.85714 17.9954 7.42393 17.9954 11.7096V14.7096Z" fill="white"/>
</svg>
