<svg width="20" height="20" viewBox="0 0 20 20" fill="none" xmlns="http://www.w3.org/2000/svg">
<path d="M10.0001 4.16663C15.0001 4.16663 18.3334 8.83329 18.3334 9.99996C18.3334 11.1666 15.0001 15.8333 10.0001 15.8333C5.00008 15.8333 1.66675 11.1666 1.66675 9.99996C1.66675 8.83329 5.00008 4.16663 10.0001 4.16663ZM10.0001 5.83329C7.6989 5.83329 5.83341 7.69877 5.83341 9.99996C5.83341 12.3011 7.6989 14.1666 10.0001 14.1666C12.3013 14.1666 14.1667 12.3011 14.1667 9.99996C14.1667 7.69877 12.3013 5.83329 10.0001 5.83329ZM10.0009 7.91663C11.1515 7.91663 12.0842 8.84937 12.0842 9.99996C12.0842 11.1506 11.1515 12.0833 10.0009 12.0833C8.85028 12.0833 7.91754 11.1506 7.91754 9.99996C7.91754 8.84937 8.85028 7.91663 10.0009 7.91663Z" fill="white"/>
</svg>
