<svg width="32" height="32" viewBox="0 0 32 32" fill="none" xmlns="http://www.w3.org/2000/svg">
<path d="M16.0019 30C13.7449 30 12.0019 28.8333 12.0019 26.6667H20.0019C20.0019 28.8333 18.2588 30 16.0019 30ZM23.9938 19.6129C23.9938 21.8986 26.8571 22.47 26.8571 23.6129C26.8571 24.7557 26.2857 25.3271 24 25.3271H7.99997C5.71425 25.3271 5.14282 24.7557 5.14282 23.6129C5.14282 22.47 7.99997 21.8986 7.99997 19.6129V15.6129C7.99997 9.89858 10.2857 5.14286 14.8571 5.14286C14.8571 4.28571 15.4285 4 16 4C16.5714 4 17.1428 4.28571 17.1428 5.14286C21.7143 5.14286 23.9938 9.89858 23.9938 15.6129V19.6129Z" fill="white"/>
</svg>
