<svg width="20" height="20" viewBox="0 0 20 20" fill="none" xmlns="http://www.w3.org/2000/svg">
<path d="M10.0013 18.75C8.59067 18.75 7.50126 18.0208 7.50126 16.6666H12.5013C12.5013 18.0208 11.4118 18.75 10.0013 18.75ZM16.1752 15.6852L16.1749 15.6853L5.91497 5.42541L5.9156 5.4242L3.99795 3.50628C3.67348 3.18176 3.67351 2.65565 3.99803 2.33118L4.00007 2.32915C4.32716 2.00435 4.85535 2.00532 5.18125 2.3313L6.93753 4.08799C7.56694 3.53333 8.34969 3.21427 9.28578 3.21427C9.28578 2.67855 9.64293 2.49998 10.0001 2.49998C10.3572 2.49998 10.7144 2.67855 10.7144 3.21427C13.5715 3.21427 14.9962 6.18659 14.9962 9.75802V12.1486L18.0846 15.2377C18.41 15.5632 18.41 16.0908 18.0846 16.4163C17.7592 16.7417 17.2316 16.7417 16.9061 16.4163L16.9061 16.4162L16.1752 15.6852ZM13.962 15.8294H5.00007C3.5715 15.8294 3.21436 15.4723 3.21436 14.758C3.21436 14.0437 5.00007 13.6866 5.00007 12.258V9.75802C5.00007 8.83619 5.09525 7.95426 5.2856 7.15307L13.962 15.8294Z" fill="white"/>
</svg>
