<svg width="64" height="30" viewBox="0 0 64 30" fill="none" xmlns="http://www.w3.org/2000/svg">
<rect width="64" height="30" rx="8" fill="#2E333D"/>
<path d="M18.489 20H24.9421V18.2979H20.5534V10.1357H18.489V20ZM30.7012 20.2529C33.6133 20.2529 35.4453 18.2568 35.4453 15.0713V15.0576C35.4453 11.8721 33.6064 9.88281 30.7012 9.88281C27.7959 9.88281 25.9502 11.8652 25.9502 15.0576V15.0713C25.9502 18.2568 27.7686 20.2529 30.7012 20.2529ZM30.7012 18.5029C29.0742 18.5029 28.0557 17.1562 28.0557 15.0713V15.0576C28.0557 12.9658 29.0947 11.6328 30.7012 11.6328C32.3008 11.6328 33.3398 12.9658 33.3398 15.0576V15.0713C33.3398 17.1562 32.3076 18.5029 30.7012 18.5029ZM41.5462 20.2529C44.2396 20.2529 45.9212 18.6123 45.9212 15.9941V14.7432H41.7786V16.2471H43.9114L43.9046 16.4316C43.8636 17.6758 42.9339 18.5029 41.5804 18.5029C39.9534 18.5029 38.9212 17.1836 38.9212 15.0439V15.0303C38.9212 12.9316 39.9056 11.6328 41.4983 11.6328C42.6536 11.6328 43.4944 12.2139 43.7747 13.1914L43.7884 13.2598H45.8392L45.8255 13.1914C45.5315 11.2227 43.8294 9.88281 41.4983 9.88281C38.6273 9.88281 36.8157 11.8857 36.8157 15.0508V15.0645C36.8157 18.2773 38.6136 20.2529 41.5462 20.2529Z" fill="#828282"/>
</svg>
