<svg width="38" height="38" viewBox="0 0 38 38" fill="none" xmlns="http://www.w3.org/2000/svg">
<rect width="38" height="38" rx="19" fill="white" fill-opacity="0.05"/>
<path fill-rule="evenodd" clip-rule="evenodd" d="M27.9976 17.3237L28 20.6446C27.9761 20.961 27.9452 21.277 27.9075 21.5925C27.8443 22.1199 27.4056 22.5454 26.8545 22.6056C25.1287 22.7941 23.3427 22.7941 21.6169 22.6056C21.0658 22.5454 20.6271 22.1199 20.5639 21.5925C20.3578 19.87 20.3578 18.13 20.5639 16.4075C20.6271 15.8801 21.0658 15.4546 21.6169 15.3944C23.3427 15.2059 25.1287 15.2059 26.8545 15.3944C27.4056 15.4546 27.8443 15.8801 27.9075 16.4075C27.944 16.7124 27.974 17.0179 27.9976 17.3237ZM24.2357 17.625C23.4586 17.625 22.8286 18.2406 22.8286 19C22.8286 19.7594 23.4586 20.375 24.2357 20.375C25.0128 20.375 25.6428 19.7594 25.6428 19C25.6428 18.2406 25.0128 17.625 24.2357 17.625Z" fill="white"/>
<path d="M27.4286 13.5364C27.5744 13.7832 27.3007 14.0596 27.0108 14.0279C25.1811 13.8281 23.2903 13.8281 21.4606 14.0279C20.2698 14.158 19.3068 15.0742 19.1663 16.2478C18.9475 18.0764 18.9475 19.9236 19.1663 21.7522C19.3068 22.9258 20.2698 23.842 21.4606 23.9721C23.2903 24.1719 25.1811 24.1719 27.0108 23.9721C27.3026 23.9402 27.5786 24.2185 27.4313 24.4667C26.7009 25.6977 25.3988 26.5568 23.8856 26.7124L23.2741 26.7752C20.1682 27.0946 17.0356 27.0736 13.9345 26.7125L13.5293 26.6653C11.8575 26.4706 10.5329 25.1943 10.3102 23.5635C9.8966 20.5346 9.8966 17.4654 10.3102 14.4365C10.5329 12.8057 11.8575 11.5294 13.5293 11.3347L13.9345 11.2875C17.0356 10.9264 20.1682 10.9054 23.2741 11.2248L23.8856 11.2876C25.4001 11.4434 26.7002 12.3038 27.4286 13.5364Z" fill="white"/>
</svg>
