<svg width="64" height="30" viewBox="0 0 64 30" fill="none" xmlns="http://www.w3.org/2000/svg">
<rect width="64" height="30" rx="8" fill="#3C2F39"/>
<path d="M22.2077 20.2529C25.1198 20.2529 26.9519 18.2568 26.9519 15.0713V15.0576C26.9519 11.8721 25.113 9.88281 22.2077 9.88281C19.3024 9.88281 17.4567 11.8652 17.4567 15.0576V15.0713C17.4567 18.2568 19.2751 20.2529 22.2077 20.2529ZM22.2077 18.5029C20.5808 18.5029 19.5622 17.1562 19.5622 15.0713V15.0576C19.5622 12.9658 20.6013 11.6328 22.2077 11.6328C23.8073 11.6328 24.8464 12.9658 24.8464 15.0576V15.0713C24.8464 17.1562 23.8142 18.5029 22.2077 18.5029ZM32.8887 20.2529C35.4316 20.2529 37.0176 18.7832 37.0176 16.5957V10.1357H34.9531V16.4111C34.9531 17.6895 34.2148 18.5029 32.8887 18.5029C31.5625 18.5029 30.8174 17.6895 30.8174 16.4111V10.1357H28.7529V16.5957C28.7529 18.79 30.3594 20.2529 32.8887 20.2529ZM41.6487 20H43.7132V11.8379H46.6731V10.1357H38.6888V11.8379H41.6487V20Z" fill="#EB5757"/>
</svg>
