<svg width="18" height="18" viewBox="0 0 18 18" fill="none" xmlns="http://www.w3.org/2000/svg">
<path d="M10.44 5.07601L12.924 7.56001L6.97363 13.5044C6.43226 14.0458 5.76616 14.4458 5.03393 14.6694L3.00182 15.2898C2.8784 15.3274 2.74781 15.2579 2.71013 15.1345C2.69656 15.09 2.69656 15.0425 2.71013 14.9981L3.33044 12.966C3.55402 12.2336 3.95415 11.5674 4.49562 11.0259L10.44 5.07601ZM13.9994 3.0076L14.9923 4.00063C15.3769 4.38512 15.4009 4.99361 15.0645 5.40613L14.9923 5.48589L13.932 6.54301L11.457 4.06801L12.5141 3.00757C12.9243 2.59748 13.5892 2.59749 13.9994 3.0076Z" fill="white" fill-opacity="0.5"/>
</svg>
