<svg width="32" height="32" viewBox="0 0 32 32" fill="none" xmlns="http://www.w3.org/2000/svg">
<path d="M19.6433 8.31146L23.6879 12.356L10.4047 25.6405C9.52093 26.5242 8.43361 27.1772 7.23833 27.5421L3.92122 28.5548C3.71976 28.6163 3.50659 28.5028 3.44509 28.3014C3.42293 28.2288 3.42293 28.1512 3.44509 28.0786L4.45767 24.7618C4.82262 23.5663 5.47575 22.4789 6.35961 21.5951L19.6433 8.31146ZM25.3017 5.07861L26.9226 6.69949C27.5503 7.32708 27.5895 8.32029 27.0403 8.99361L26.9225 9.12381L24.9005 11.1446L20.8548 7.09888L22.8773 5.07857C23.5468 4.40918 24.6322 4.4092 25.3017 5.07861Z" fill="white"/>
</svg>
