<svg width="32" height="32" viewBox="0 0 32 32" fill="none" xmlns="http://www.w3.org/2000/svg">
<path d="M16.0019 30C13.7449 30 12.0019 28.8333 12.0019 26.6666H20.0019C20.0019 28.8333 18.2588 30 16.0019 30ZM25.8801 25.0963L25.8796 25.0965L9.4638 8.68066L9.46482 8.67872L6.39657 5.61004C5.87742 5.09082 5.87748 4.24904 6.3967 3.72988L6.39996 3.72663C6.92332 3.20697 7.76841 3.20851 8.28986 3.73008L11.0999 6.54078C12.1069 5.65333 13.3594 5.14283 14.8571 5.14283C14.8571 4.28568 15.4285 3.99997 16 3.99997C16.5714 3.99997 17.1428 4.28568 17.1428 5.14283C21.7143 5.14283 23.9938 9.89855 23.9938 15.6128V19.4377L28.9353 24.3803C29.4559 24.9011 29.4559 25.7453 28.9352 26.266C28.4145 26.7867 27.5703 26.7867 27.0497 26.266L27.0496 26.266L25.8801 25.0963ZM22.339 25.3271H7.99997C5.71425 25.3271 5.14282 24.7557 5.14282 23.6128C5.14282 22.47 7.99997 21.8985 7.99997 19.6128V15.6128C7.99997 14.1379 8.15225 12.7268 8.45681 11.4449L22.339 25.3271Z" fill="white"/>
</svg>
