<svg width="32" height="32" viewBox="0 0 32 32" fill="none" xmlns="http://www.w3.org/2000/svg">
<path d="M8.28389 5.06272L10.9195 7.69939C10.92 7.69921 10.9204 7.69902 10.9208 7.69884L13.1806 9.95717C13.1802 9.95737 13.1797 9.95758 13.1793 9.95779L15.8894 12.6696H15.8921L19.333 16.1081C19.3329 16.1098 19.3329 16.1116 19.3328 16.1134L22.0414 18.8227C22.0421 18.8214 22.0427 18.82 22.0433 18.8187L25.0883 21.8649C25.0874 21.8657 25.0865 21.8664 25.0856 21.8671L26.9329 23.716C27.4535 24.2368 27.4535 25.081 26.9328 25.6018C26.4522 26.0823 25.696 26.1193 25.173 25.7127L25.0473 25.6016L22.8621 23.4168C20.9172 24.5451 18.5994 25.3334 16.0001 25.3334C8.00008 25.3334 2.66675 17.8667 2.66675 16C2.66675 14.8127 4.82439 11.3599 8.45349 9.00387L6.39838 6.94845C5.87772 6.42767 5.87777 5.58344 6.39848 5.06272C6.91912 4.54208 7.76325 4.54208 8.28389 5.06272ZM9.33341 16C9.33341 19.6819 12.3182 22.6667 16.0001 22.6667C17.7005 22.6667 19.2522 22.0301 20.4299 20.9822L18.0644 18.6184C17.4969 19.0662 16.7803 19.3334 16.0014 19.3334C14.1604 19.3334 12.668 17.841 12.668 16C12.668 15.2204 12.9356 14.5034 13.384 13.9356L11.0179 11.5702C9.97004 12.7479 9.33341 14.2996 9.33341 16ZM16.0001 6.66669C24.0001 6.66669 29.3334 14.1334 29.3334 16C29.3334 16.7356 28.5053 18.3406 27.0122 20.0158L22.6584 15.6625C22.4881 12.2492 19.7508 9.51184 16.3374 9.34174L13.8434 6.84924C14.5379 6.73103 15.2575 6.66669 16.0001 6.66669Z" fill="white"/>
</svg>
